<?xml version="1.0" encoding="UTF-8"?>
<svg width="32" height="32" viewBox="0 0 32 32" xmlns="http://www.w3.org/2000/svg">
  <!-- BROADCAST - Rich 1→N Distribution Icon (Monochrome) -->

  <!-- Input node with ring -->
  <circle cx="8" cy="16" r="3" fill="none" stroke="currentColor" stroke-width="2"/>
  <circle cx="8" cy="16" r="1.5" fill="currentColor"/>

  <!-- Main trunk line -->
  <path d="M11 16 L14 16" stroke="currentColor" stroke-width="2.5" stroke-linecap="round"/>

  <!-- Distribution hub (larger) -->
  <circle cx="14" cy="16" r="2.5" fill="none" stroke="currentColor" stroke-width="2"/>
  <circle cx="14" cy="16" r="1" fill="currentColor"/>

  <!-- Branch to top output (with support structure) -->
  <path d="M15.5 14.5 L22 9" stroke="currentColor" stroke-width="2.5" stroke-linecap="round"/>
  <path d="M15 15 L21 10" stroke="currentColor" stroke-width="1" opacity="0.4" stroke-linecap="round"/>

  <!-- Branch to middle output -->
  <path d="M16.5 16 L24 16" stroke="currentColor" stroke-width="2.5" stroke-linecap="round"/>
  <path d="M16 16 L23 16" stroke="currentColor" stroke-width="1" opacity="0.4" stroke-linecap="round"/>

  <!-- Branch to bottom output (with support structure) -->
  <path d="M15.5 17.5 L22 23" stroke="currentColor" stroke-width="2.5" stroke-linecap="round"/>
  <path d="M15 17 L21 22" stroke="currentColor" stroke-width="1" opacity="0.4" stroke-linecap="round"/>

  <!-- Output nodes with rings -->
  <circle cx="22" cy="9" r="2.5" fill="none" stroke="currentColor" stroke-width="2"/>
  <circle cx="22" cy="9" r="1.2" fill="currentColor"/>

  <circle cx="24" cy="16" r="2.5" fill="none" stroke="currentColor" stroke-width="2"/>
  <circle cx="24" cy="16" r="1.2" fill="currentColor"/>

  <circle cx="22" cy="23" r="2.5" fill="none" stroke="currentColor" stroke-width="2"/>
  <circle cx="22" cy="23" r="1.2" fill="currentColor"/>

  <!-- Flow arrows -->
  <path d="M18 10.5 L20 9.5 L19 11" stroke="currentColor" stroke-width="1.5" stroke-linecap="round" stroke-linejoin="round" fill="none"/>
  <path d="M20 15 L22 15 L21 16.5" stroke="currentColor" stroke-width="1.5" stroke-linecap="round" stroke-linejoin="round" fill="none"/>
  <path d="M18 21.5 L20 22.5 L19 21" stroke="currentColor" stroke-width="1.5" stroke-linecap="round" stroke-linejoin="round" fill="none"/>
</svg>
