<?xml version="1.0" encoding="UTF-8"?>
<svg width="32" height="32" viewBox="0 0 32 32" xmlns="http://www.w3.org/2000/svg">
  <!-- BROADCAST - Phosphor-inspired 1→N Distribution -->

  <!-- Input node -->
  <circle cx="8" cy="16" r="2.5" fill="none" stroke="currentColor" stroke-width="2"/>
  <circle cx="8" cy="16" r="1" fill="currentColor"/>

  <!-- Main trunk to hub -->
  <line x1="10.5" y1="16" x2="14" y2="16" stroke="currentColor" stroke-width="2" stroke-linecap="round"/>

  <!-- Distribution hub -->
  <circle cx="14" cy="16" r="2" fill="currentColor"/>

  <!-- Branch lines to outputs -->
  <line x1="15.5" y1="14.5" x2="21.5" y2="8.5" stroke="currentColor" stroke-width="2" stroke-linecap="round"/>
  <line x1="16" y1="16" x2="24" y2="16" stroke="currentColor" stroke-width="2" stroke-linecap="round"/>
  <line x1="15.5" y1="17.5" x2="21.5" y2="23.5" stroke="currentColor" stroke-width="2" stroke-linecap="round"/>

  <!-- Output nodes -->
  <circle cx="22" cy="8" r="2.5" fill="none" stroke="currentColor" stroke-width="2"/>
  <circle cx="22" cy="8" r="1" fill="currentColor"/>

  <circle cx="24" cy="16" r="2.5" fill="none" stroke="currentColor" stroke-width="2"/>
  <circle cx="24" cy="16" r="1" fill="currentColor"/>

  <circle cx="22" cy="24" r="2.5" fill="none" stroke="currentColor" stroke-width="2"/>
  <circle cx="22" cy="24" r="1" fill="currentColor"/>

  <!-- Simple flow arrows (clean chevrons) -->
  <polyline points="18,9.5 20,8.5 19.5,10.5" fill="none" stroke="currentColor" stroke-width="1.5" stroke-linecap="round" stroke-linejoin="round"/>
  <polyline points="20,15 22,15 21.5,17" fill="none" stroke="currentColor" stroke-width="1.5" stroke-linecap="round" stroke-linejoin="round"/>
  <polyline points="18,22.5 20,23.5 19.5,21.5" fill="none" stroke="currentColor" stroke-width="1.5" stroke-linecap="round" stroke-linejoin="round"/>
</svg>
