<?xml version="1.0" encoding="UTF-8"?>
<svg width="32" height="32" viewBox="0 0 32 32" xmlns="http://www.w3.org/2000/svg">
  <!-- CURRENT RATE - Rich Speedometer/Gauge Icon (Monochrome) -->

  <!-- Main gauge arc -->
  <path d="M6 20 A 10 10 0 0 1 26 20" fill="none" stroke="currentColor" stroke-width="2.5" stroke-linecap="round"/>

  <!-- Inner arc (depth) -->
  <path d="M8 20 A 8 8 0 0 1 24 20" fill="none" stroke="currentColor" stroke-width="1" opacity="0.3"/>

  <!-- Major tick marks (5 positions) -->
  <line x1="7" y1="19" x2="9" y2="18" stroke="currentColor" stroke-width="2" stroke-linecap="round"/>
  <line x1="10" y1="13" x2="11.5" y2="14.5" stroke="currentColor" stroke-width="2" stroke-linecap="round"/>
  <line x1="16" y1="10" x2="16" y2="12" stroke="currentColor" stroke-width="2" stroke-linecap="round"/>
  <line x1="22" y1="13" x2="20.5" y2="14.5" stroke="currentColor" stroke-width="2" stroke-linecap="round"/>
  <line x1="25" y1="19" x2="23" y2="18" stroke="currentColor" stroke-width="2" stroke-linecap="round"/>

  <!-- Minor tick marks (between majors) -->
  <line x1="8.5" y1="16" x2="9.5" y2="16.5" stroke="currentColor" stroke-width="1" opacity="0.5" stroke-linecap="round"/>
  <line x1="13" y1="11.5" x2="13.5" y2="12.5" stroke="currentColor" stroke-width="1" opacity="0.5" stroke-linecap="round"/>
  <line x1="19" y1="11.5" x2="18.5" y2="12.5" stroke="currentColor" stroke-width="1" opacity="0.5" stroke-linecap="round"/>
  <line x1="23.5" y1="16" x2="22.5" y2="16.5" stroke="currentColor" stroke-width="1" opacity="0.5" stroke-linecap="round"/>

  <!-- Needle (pointing to ~60-70%) -->
  <path d="M16 20 L20 14" stroke="currentColor" stroke-width="2.5" stroke-linecap="round"/>

  <!-- Needle shadow/depth -->
  <path d="M16.5 20 L20.5 14.5" stroke="currentColor" stroke-width="1.5" opacity="0.2" stroke-linecap="round"/>

  <!-- Center pivot with multiple rings -->
  <circle cx="16" cy="20" r="2.5" fill="none" stroke="currentColor" stroke-width="2"/>
  <circle cx="16" cy="20" r="1.2" fill="currentColor"/>
  <circle cx="16" cy="20" r="3.5" fill="none" stroke="currentColor" stroke-width="0.8" opacity="0.3"/>

  <!-- Base platform -->
  <rect x="10" y="20" width="12" height="2" rx="1" fill="none" stroke="currentColor" stroke-width="1.5"/>

  <!-- Indicator markers on base -->
  <line x1="8" y1="23" x2="10" y2="23" stroke="currentColor" stroke-width="1.5" stroke-linecap="round"/>
  <line x1="22" y1="23" x2="24" y2="23" stroke="currentColor" stroke-width="1.5" stroke-linecap="round"/>
  <line x1="15" y1="23" x2="17" y2="23" stroke="currentColor" stroke-width="1.5" stroke-linecap="round"/>
</svg>
