<?xml version="1.0" encoding="UTF-8"?>
<svg width="32" height="32" viewBox="0 0 32 32" xmlns="http://www.w3.org/2000/svg">
  <!-- DIRECTION - Rich Bidirectional Flow Icon (Monochrome) -->

  <!-- Outbound path (top) with support line -->
  <path d="M6 10 L26 10" stroke="currentColor" stroke-width="2.5" stroke-linecap="round"/>
  <path d="M6 11 L26 11" stroke="currentColor" stroke-width="1" opacity="0.3" stroke-linecap="round"/>

  <!-- Outbound arrow -->
  <path d="M21 7 L26 10 L21 13" stroke="currentColor" stroke-width="2.5" stroke-linecap="round" stroke-linejoin="round" fill="none"/>
  <path d="M21 7 L26 10 L21 13 Z" fill="currentColor" opacity="0.2"/>

  <!-- Inbound path (bottom) with support line -->
  <path d="M26 22 L6 22" stroke="currentColor" stroke-width="2.5" stroke-linecap="round"/>
  <path d="M26 21 L6 21" stroke="currentColor" stroke-width="1" opacity="0.3" stroke-linecap="round"/>

  <!-- Inbound arrow -->
  <path d="M11 19 L6 22 L11 25" stroke="currentColor" stroke-width="2.5" stroke-linecap="round" stroke-linejoin="round" fill="none"/>
  <path d="M11 19 L6 22 L11 25 Z" fill="currentColor" opacity="0.2"/>

  <!-- Central connection node -->
  <circle cx="16" cy="16" r="3" fill="none" stroke="currentColor" stroke-width="2"/>
  <circle cx="16" cy="16" r="1.2" fill="currentColor"/>

  <!-- Connecting lines to center -->
  <line x1="16" y1="13" x2="16" y2="10" stroke="currentColor" stroke-width="1.5" opacity="0.5"/>
  <line x1="16" y1="19" x2="16" y2="22" stroke="currentColor" stroke-width="1.5" opacity="0.5"/>

  <!-- Flow indicators (dots) -->
  <circle cx="12" cy="10" r="0.8" fill="currentColor" opacity="0.5"/>
  <circle cx="18" cy="10" r="0.8" fill="currentColor" opacity="0.5"/>
  <circle cx="12" cy="22" r="0.8" fill="currentColor" opacity="0.5"/>
  <circle cx="20" cy="22" r="0.8" fill="currentColor" opacity="0.5"/>
</svg>
