<?xml version="1.0" encoding="UTF-8"?>
<svg width="32" height="32" viewBox="0 0 32 32" xmlns="http://www.w3.org/2000/svg">
  <!-- SESSION TOTAL - Rich Database/Storage Cylinder Icon (Monochrome) -->

  <!-- Top ellipse (double ring for depth) -->
  <ellipse cx="16" cy="10" rx="8" ry="3" fill="none" stroke="currentColor" stroke-width="2.5"/>
  <ellipse cx="16" cy="10" rx="6.5" ry="2" fill="none" stroke="currentColor" stroke-width="1" opacity="0.3"/>

  <!-- Cylinder body (vertical sides with shadow) -->
  <path d="M8 10 L8 22" stroke="currentColor" stroke-width="2.5" stroke-linecap="round"/>
  <path d="M24 10 L24 22" stroke="currentColor" stroke-width="2.5" stroke-linecap="round"/>
  <path d="M8.8 10.5 L8.8 21.5" stroke="currentColor" stroke-width="1" opacity="0.2" stroke-linecap="round"/>
  <path d="M23.2 10.5 L23.2 21.5" stroke="currentColor" stroke-width="1" opacity="0.2" stroke-linecap="round"/>

  <!-- Data layers (horizontal bands) -->
  <ellipse cx="16" cy="14" rx="7.5" ry="2.5" fill="none" stroke="currentColor" stroke-width="2"/>
  <ellipse cx="16" cy="18" rx="7.5" ry="2.5" fill="none" stroke="currentColor" stroke-width="2"/>

  <!-- Subtle layer shading -->
  <ellipse cx="16" cy="14" rx="6" ry="1.5" fill="none" stroke="currentColor" stroke-width="0.8" opacity="0.3"/>
  <ellipse cx="16" cy="18" rx="6" ry="1.5" fill="none" stroke="currentColor" stroke-width="0.8" opacity="0.3"/>

  <!-- Bottom ellipse (double ring) -->
  <ellipse cx="16" cy="22" rx="8" ry="3" fill="none" stroke="currentColor" stroke-width="2.5"/>
  <ellipse cx="16" cy="22" rx="6.5" ry="2" fill="none" stroke="currentColor" stroke-width="1" opacity="0.3"/>

  <!-- Accumulation indicators (stacked dots on right side) -->
  <circle cx="25" cy="14" r="0.8" fill="currentColor" opacity="0.6"/>
  <circle cx="25" cy="16" r="0.8" fill="currentColor" opacity="0.6"/>
  <circle cx="25" cy="18" r="0.8" fill="currentColor" opacity="0.6"/>
  <circle cx="25" cy="20" r="0.8" fill="currentColor" opacity="0.6"/>
</svg>
