<?xml version="1.0" encoding="UTF-8"?>
<svg width="32" height="32" viewBox="0 0 32 32" xmlns="http://www.w3.org/2000/svg">
  <!-- HELP - Information Badge - Rich Two-Tone Design -->

  <!-- Layer 1: White badge structure -->
  <!-- Outer circle -->
  <circle cx="16" cy="16" r="12" fill="none" stroke="#e2e1e1" stroke-width="2"/>
  <!-- Octagonal inner frame (shield/badge effect) -->
  <path d="M 16 6 L 20 8 L 24 10 L 26 14 L 26 18 L 24 22 L 20 24 L 16 26 L 12 24 L 8 22 L 6 18 L 6 14 L 8 10 L 12 8 Z"
        fill="none" stroke="#e2e1e1" stroke-width="1.2" opacity="0.6"/>

  <!-- Corner accent marks (decorative) -->
  <path d="M 16 3 A 2 2 0 0 1 16 5" fill="none" stroke="#e2e1e1" stroke-width="1"/>
  <path d="M 29 16 A 2 2 0 0 1 27 16" fill="none" stroke="#e2e1e1" stroke-width="1"/>
  <path d="M 16 29 A 2 2 0 0 1 16 27" fill="none" stroke="#e2e1e1" stroke-width="1"/>
  <path d="M 3 16 A 2 2 0 0 1 5 16" fill="none" stroke="#e2e1e1" stroke-width="1"/>

  <!-- Layer 2: Blue question mark (prominent) -->
  <!-- Question mark curve -->
  <path d="M 13 11 Q 16 8 19 11 Q 20 13 16 15.5"
        stroke="#4f90cd" stroke-width="2.5" fill="none" stroke-linecap="round" stroke-linejoin="round"/>
  <!-- Question mark dot -->
  <circle cx="16" cy="20" r="1.8" fill="#4f90cd"/>

  <!-- Layer 3: Details -->
  <!-- Blue accent dots at cardinal points -->
  <circle cx="16" cy="4" r="1" fill="#4f90cd" opacity="0.8"/>
  <circle cx="28" cy="16" r="1" fill="#4f90cd" opacity="0.8"/>
  <circle cx="16" cy="28" r="1" fill="#4f90cd" opacity="0.8"/>
  <circle cx="4" cy="16" r="1" fill="#4f90cd" opacity="0.8"/>

  <!-- Inner badge ring (depth) -->
  <circle cx="16" cy="16" r="9" fill="none" stroke="#e2e1e1" stroke-width="0.8" opacity="0.3"/>

  <!-- Small info "i" indicator (bottom-right) -->
  <circle cx="23" cy="23" r="3" fill="none" stroke="#4f90cd" stroke-width="1"/>
  <line x1="23" y1="22" x2="23" y2="24" stroke="#4f90cd" stroke-width="1.5" stroke-linecap="round"/>
  <circle cx="23" cy="21" r="0.5" fill="#4f90cd"/>

  <!-- Highlight arc (glass effect) -->
  <path d="M 18 7 A 9 9 0 0 1 23 10" fill="none" stroke="#e2e1e1" stroke-width="1" opacity="0.3" stroke-linecap="round"/>

  <!-- Index reference marks (like measurement ticks) -->
  <line x1="13" y1="5.5" x2="13.5" y2="6.5" stroke="#e2e1e1" stroke-width="0.8" opacity="0.4"/>
  <line x1="19" y1="5.5" x2="18.5" y2="6.5" stroke="#e2e1e1" stroke-width="0.8" opacity="0.4"/>
  <line x1="26.5" y1="13" x2="25.5" y2="13.5" stroke="#e2e1e1" stroke-width="0.8" opacity="0.4"/>
  <line x1="26.5" y1="19" x2="25.5" y2="18.5" stroke="#e2e1e1" stroke-width="0.8" opacity="0.4"/>
</svg>
