<?xml version="1.0" encoding="UTF-8"?>
<svg width="32" height="32" viewBox="0 0 32 32" xmlns="http://www.w3.org/2000/svg">
  <!-- INFO/ABOUT - Information Circle - Rich Two-Tone Design -->

  <!-- Layer 1: White circle structure -->
  <!-- Outer circle -->
  <circle cx="16" cy="16" r="12" fill="none" stroke="#e2e1e1" stroke-width="2"/>
  <!-- Inner decorative ring -->
  <circle cx="16" cy="16" r="9.5" fill="none" stroke="#e2e1e1" stroke-width="0.8" opacity="0.4"/>

  <!-- Hexagonal inner frame (badge effect) -->
  <path d="M 16 7 L 21 10 L 21 16 L 21 22 L 16 25 L 11 22 L 11 16 L 11 10 Z"
        fill="none" stroke="#e2e1e1" stroke-width="1" opacity="0.5"/>

  <!-- Corner accent marks (decorative) -->
  <path d="M 16 3 A 2 2 0 0 1 16 5" fill="none" stroke="#e2e1e1" stroke-width="1"/>
  <path d="M 29 16 A 2 2 0 0 1 27 16" fill="none" stroke="#e2e1e1" stroke-width="1"/>
  <path d="M 16 29 A 2 2 0 0 1 16 27" fill="none" stroke="#e2e1e1" stroke-width="1"/>
  <path d="M 3 16 A 2 2 0 0 1 5 16" fill="none" stroke="#e2e1e1" stroke-width="1"/>

  <!-- Layer 2: Blue information "i" (prominent) -->
  <!-- Information "i" dot -->
  <circle cx="16" cy="10" r="2" fill="#4f90cd"/>

  <!-- Information "i" stem -->
  <rect x="14.5" y="13" width="3" height="9" rx="1.5" fill="#4f90cd"/>

  <!-- Serif base (traditional "i" style) -->
  <rect x="13" y="21" width="6" height="1.5" rx="0.5" fill="#4f90cd"/>

  <!-- Layer 3: Details -->
  <!-- Blue accent dots at cardinal points -->
  <circle cx="16" cy="4" r="1" fill="#4f90cd" opacity="0.7"/>
  <circle cx="28" cy="16" r="1" fill="#4f90cd" opacity="0.7"/>
  <circle cx="16" cy="28" r="1" fill="#4f90cd" opacity="0.7"/>
  <circle cx="4" cy="16" r="1" fill="#4f90cd" opacity="0.7"/>

  <!-- Diagonal accent lines (document/page effect) -->
  <line x1="20" y1="10" x2="23" y2="13" stroke="#e2e1e1" stroke-width="1" opacity="0.4"/>
  <line x1="20" y1="13" x2="23" y2="16" stroke="#e2e1e1" stroke-width="1" opacity="0.4"/>
  <line x1="20" y1="16" x2="23" y2="19" stroke="#e2e1e1" stroke-width="1" opacity="0.4"/>

  <!-- Highlight arc (glass effect) -->
  <path d="M 18 7 A 9 9 0 0 1 23 10" fill="none" stroke="#e2e1e1" stroke-width="1" opacity="0.3" stroke-linecap="round"/>

  <!-- Small detail circles (decorative depth) -->
  <circle cx="12" cy="8" r="0.8" fill="#e2e1e1" opacity="0.3"/>
  <circle cx="20" cy="8" r="0.8" fill="#e2e1e1" opacity="0.3"/>

  <!-- Index reference marks (like measurement ticks) -->
  <line x1="13" y1="5.5" x2="13.5" y2="6.5" stroke="#e2e1e1" stroke-width="0.8" opacity="0.4"/>
  <line x1="19" y1="5.5" x2="18.5" y2="6.5" stroke="#e2e1e1" stroke-width="0.8" opacity="0.4"/>
  <line x1="26.5" y1="13" x2="25.5" y2="13.5" stroke="#e2e1e1" stroke-width="0.8" opacity="0.4"/>
  <line x1="26.5" y1="19" x2="25.5" y2="18.5" stroke="#e2e1e1" stroke-width="0.8" opacity="0.4"/>
</svg>
