<?xml version="1.0" encoding="UTF-8"?>
<svg width="32" height="32" viewBox="0 0 32 32" xmlns="http://www.w3.org/2000/svg">
  <!-- TERMINAL - Monitor/Window Frame - Rich Two-Tone Design -->

  <!-- Layer 1: White monitor/window frame -->
  <rect x="3" y="4" width="26" height="20" rx="2" fill="none" stroke="#e2e1e1" stroke-width="1.5"/>
  <!-- Title bar -->
  <line x1="3" y1="9" x2="29" y2="9" stroke="#e2e1e1" stroke-width="1.5"/>
  <!-- Window control dots -->
  <circle cx="6" cy="6.5" r="1" fill="#e2e1e1"/>
  <circle cx="9.5" cy="6.5" r="1" fill="none" stroke="#e2e1e1" stroke-width="0.8"/>
  <circle cx="13" cy="6.5" r="1" fill="none" stroke="#e2e1e1" stroke-width="0.8"/>

  <!-- Monitor stand -->
  <path d="M14 24 L14 27 L18 27 L18 24" fill="none" stroke="#e2e1e1" stroke-width="1.5" stroke-linecap="round"/>
  <!-- Base platform -->
  <line x1="11" y1="28" x2="21" y2="28" stroke="#e2e1e1" stroke-width="2" stroke-linecap="round"/>
  <!-- Cable detail -->
  <path d="M17 27 Q18 28 19 28" fill="none" stroke="#e2e1e1" stroke-width="0.8"/>

  <!-- Layer 2: Blue screen content -->
  <!-- Command prompt -->
  <path d="M7 13 L10 16 L7 19" fill="none" stroke="#4f90cd" stroke-width="2" stroke-linecap="round" stroke-linejoin="round"/>
  <!-- Cursor -->
  <line x1="12" y1="16" x2="14" y2="16" stroke="#4f90cd" stroke-width="2" stroke-linecap="round"/>

  <!-- Previous command lines (code history) -->
  <line x1="7" y1="12" x2="15" y2="12" stroke="#4f90cd" stroke-width="1.2" opacity="0.5"/>
  <line x1="7" y1="14" x2="12" y2="14" stroke="#4f90cd" stroke-width="1.2" opacity="0.5"/>

  <!-- Layer 3: Details -->
  <!-- Active window indicator (first dot filled blue) -->
  <circle cx="6" cy="6.5" r="1" fill="#4f90cd"/>

  <!-- Scan lines (screen effect) -->
  <line x1="5" y1="15" x2="27" y2="15" stroke="#4f90cd" stroke-width="0.3" opacity="0.2"/>
  <line x1="5" y1="18" x2="27" y2="18" stroke="#4f90cd" stroke-width="0.3" opacity="0.2"/>
  <line x1="5" y1="21" x2="27" y2="21" stroke="#4f90cd" stroke-width="0.3" opacity="0.2"/>

  <!-- Screen reflection highlight -->
  <path d="M25 11 Q27 13 27 16" fill="none" stroke="#e2e1e1" stroke-width="0.8" opacity="0.3"/>
</svg>
