<?xml version="1.0" encoding="UTF-8"?>
<svg width="64" height="64" viewBox="0 0 64 64" xmlns="http://www.w3.org/2000/svg">
  <!-- SerialRouter App Icon - Option D: Solid Background with Bold Design -->

  <!-- Solid background - rounded square -->
  <rect x="2" y="2" width="60" height="60" rx="12" fill="#2d3748"/>

  <!-- Subtle inner shadow effect -->
  <rect x="4" y="4" width="56" height="56" rx="10" fill="none" stroke="#1a202c" stroke-width="1" opacity="0.5"/>

  <!-- Layer 1: Blue routing paths (star/hub pattern) - BOLDER -->
  <!-- North path -->
  <line x1="32" y1="32" x2="32" y2="8" stroke="#5ba3e0" stroke-width="3.5" stroke-linecap="round"/>
  <circle cx="32" cy="8" r="3.5" fill="#5ba3e0"/>
  <circle cx="32" cy="8" r="1.5" fill="#ffffff"/>

  <!-- South path -->
  <line x1="32" y1="32" x2="32" y2="56" stroke="#5ba3e0" stroke-width="3.5" stroke-linecap="round"/>
  <circle cx="32" cy="56" r="3.5" fill="#5ba3e0"/>
  <circle cx="32" cy="56" r="1.5" fill="#ffffff"/>

  <!-- East path -->
  <line x1="32" y1="32" x2="56" y2="32" stroke="#5ba3e0" stroke-width="3.5" stroke-linecap="round"/>
  <circle cx="56" cy="32" r="3.5" fill="#5ba3e0"/>
  <circle cx="56" cy="32" r="1.5" fill="#ffffff"/>

  <!-- West path -->
  <line x1="32" y1="32" x2="8" y2="32" stroke="#5ba3e0" stroke-width="3.5" stroke-linecap="round"/>
  <circle cx="8" cy="32" r="3.5" fill="#5ba3e0"/>
  <circle cx="8" cy="32" r="1.5" fill="#ffffff"/>

  <!-- Layer 2: Central router chip - BOLD and SIMPLIFIED -->
  <!-- Outer chip package with glow -->
  <rect x="20" y="20" width="24" height="24" rx="3" fill="#5ba3e0" opacity="0.15"/>
  <rect x="20" y="20" width="24" height="24" rx="3" fill="none" stroke="#e2e1e1" stroke-width="2.5"/>

  <!-- Simplified chip pins (2 per side) -->
  <!-- Top pins -->
  <rect x="28" y="17.5" width="2.5" height="3" fill="#e2e1e1"/>
  <rect x="33.5" y="17.5" width="2.5" height="3" fill="#e2e1e1"/>

  <!-- Bottom pins -->
  <rect x="28" y="43.5" width="2.5" height="3" fill="#e2e1e1"/>
  <rect x="33.5" y="43.5" width="2.5" height="3" fill="#e2e1e1"/>

  <!-- Left pins -->
  <rect x="17" y="28" width="3" height="2.5" fill="#e2e1e1"/>
  <rect x="17" y="33.5" width="3" height="2.5" fill="#e2e1e1"/>

  <!-- Right pins -->
  <rect x="44" y="28" width="3" height="2.5" fill="#e2e1e1"/>
  <rect x="44" y="33.5" width="3" height="2.5" fill="#e2e1e1"/>

  <!-- Inner chip die - BOLD -->
  <rect x="26" y="26" width="12" height="12" rx="1.5" fill="none" stroke="#5ba3e0" stroke-width="2.5"/>

  <!-- Central router hub - PROMINENT -->
  <circle cx="32" cy="32" r="4.5" fill="#5ba3e0"/>
  <circle cx="32" cy="32" r="2" fill="#ffffff"/>

  <!-- Corner accent dots for detail -->
  <circle cx="23" cy="23" r="1.2" fill="#5ba3e0" opacity="0.7"/>
  <circle cx="41" cy="23" r="1.2" fill="#5ba3e0" opacity="0.7"/>
  <circle cx="23" cy="41" r="1.2" fill="#5ba3e0" opacity="0.7"/>
  <circle cx="41" cy="41" r="1.2" fill="#5ba3e0" opacity="0.7"/>
</svg>
