<?xml version="1.0" encoding="UTF-8"?>
<svg width="32" height="32" viewBox="0 0 32 32" xmlns="http://www.w3.org/2000/svg">
  <!-- PORT - Rich Serial Connector Icon (Monochrome) -->

  <!-- Connector housing (trapezoid shape) -->
  <path d="M8 12 L8 18 L10 20 L22 20 L24 18 L24 12 Z" fill="none" stroke="currentColor" stroke-width="2.5" stroke-linejoin="miter"/>

  <!-- Housing inner detail -->
  <path d="M9 12.5 L9 17.5 L10.5 19 L21.5 19 L23 17.5 L23 12.5" fill="none" stroke="currentColor" stroke-width="1" opacity="0.3"/>

  <!-- Pin array grid (DB9 style - 9 pins in 2 rows) -->
  <!-- Top row (5 pins) -->
  <circle cx="11" cy="14" r="1" fill="none" stroke="currentColor" stroke-width="1.5"/>
  <circle cx="13.5" cy="14" r="1" fill="none" stroke="currentColor" stroke-width="1.5"/>
  <circle cx="16" cy="14" r="1" fill="none" stroke="currentColor" stroke-width="1.5"/>
  <circle cx="18.5" cy="14" r="1" fill="none" stroke="currentColor" stroke-width="1.5"/>
  <circle cx="21" cy="14" r="1" fill="none" stroke="currentColor" stroke-width="1.5"/>

  <!-- Pin centers (filled) -->
  <circle cx="11" cy="14" r="0.4" fill="currentColor"/>
  <circle cx="13.5" cy="14" r="0.4" fill="currentColor"/>
  <circle cx="16" cy="14" r="0.4" fill="currentColor"/>
  <circle cx="18.5" cy="14" r="0.4" fill="currentColor"/>
  <circle cx="21" cy="14" r="0.4" fill="currentColor"/>

  <!-- Bottom row (4 pins) -->
  <circle cx="12.25" cy="17" r="1" fill="none" stroke="currentColor" stroke-width="1.5"/>
  <circle cx="15" cy="17" r="1" fill="none" stroke="currentColor" stroke-width="1.5"/>
  <circle cx="17.75" cy="17" r="1" fill="none" stroke="currentColor" stroke-width="1.5"/>
  <circle cx="20.5" cy="17" r="1" fill="none" stroke="currentColor" stroke-width="1.5"/>

  <!-- Pin centers (filled) -->
  <circle cx="12.25" cy="17" r="0.4" fill="currentColor"/>
  <circle cx="15" cy="17" r="0.4" fill="currentColor"/>
  <circle cx="17.75" cy="17" r="0.4" fill="currentColor"/>
  <circle cx="20.5" cy="17" r="0.4" fill="currentColor"/>

  <!-- Mounting screws (top and bottom corners) -->
  <circle cx="9" cy="13" r="1.2" fill="none" stroke="currentColor" stroke-width="1.5"/>
  <circle cx="9" cy="13" r="0.3" fill="currentColor"/>
  <circle cx="23" cy="13" r="1.2" fill="none" stroke="currentColor" stroke-width="1.5"/>
  <circle cx="23" cy="13" r="0.3" fill="currentColor"/>

  <!-- Cable attachment point with strain relief -->
  <path d="M24 15 L27 15" stroke="currentColor" stroke-width="2.5" stroke-linecap="round"/>
  <path d="M26 13 L26 17" stroke="currentColor" stroke-width="1.5" stroke-linecap="round"/>

  <!-- Cable shielding detail -->
  <line x1="25.5" y1="13.5" x2="25.5" y2="16.5" stroke="currentColor" stroke-width="0.8" opacity="0.4"/>
  <line x1="27" y1="13.5" x2="27" y2="16.5" stroke="currentColor" stroke-width="0.8" opacity="0.4"/>
</svg>
